<?xml version="1.0" encoding="utf-8"?>
<!-- Generator: Adobe Illustrator 17.0.2, SVG Export Plug-In . SVG Version: 6.00 Build 0)  -->
<!DOCTYPE svg PUBLIC "-//W3C//DTD SVG 1.1//EN" "http://www.w3.org/Graphics/SVG/1.1/DTD/svg11.dtd">
<svg version="1.1" id="Layer_1" xmlns="http://www.w3.org/2000/svg" xmlns:xlink="http://www.w3.org/1999/xlink" x="0px" y="0px"
	 width="461.123px" height="186.172px" viewBox="137.569 0.496 461.123 186.172"
	 enable-background="new 137.569 0.496 461.123 186.172" xml:space="preserve">
<g>
	<polygon fill="#4C81C2" points="598.692,13.741 521.935,13.741 526.664,0.506 598.692,0.506 	"/>
	<path fill="#4C81C2" d="M394.073,0.504l71.264-0.008l4.666,13.266c0.034-0.019-75.907,0.016-75.907,0
		C394.097,13.744,394.052,0.504,394.073,0.504z"/>
	<path fill="#4C81C2" d="M337.475,0.502c11.746,1.133,21.955,5.318,30.654,13.258c0,0-129.178,0.013-129.178,0
		c0-0.016,0-13.261,0-13.261L337.475,0.502z"/>
	<g>
		<rect x="137.581" y="0.502" fill="#4C81C2" width="89.739" height="13.235"/>
		<path fill="#4C81C2" d="M182.452,7.118"/>
	</g>
	<path fill="#4C81C2" d="M598.692,38.571h-85.553c0,0,4.666-13.164,4.638-13.17h80.915V38.571z"/>
	<polygon fill="#4C81C2" points="478.821,38.587 394.07,38.587 394.07,25.399 474.178,25.399 	"/>
	<path fill="#4C81C2" d="M378.188,25.395c1.702,4.348,3.718,8.066,3.718,13.17h-142.93v-13.17H378.188z"/>
	<g>
		<rect x="137.581" y="25.395" fill="#4C81C2" width="89.739" height="13.17"/>
		<path fill="#4C81C2" d="M182.452,31.98"/>
	</g>
	<polygon fill="#4C81C2" points="504.388,63.463 509.083,50.231 573.322,50.25 573.322,63.433 	"/>
	<polygon fill="#4C81C2" points="482.944,50.228 487.624,63.463 419.338,63.463 419.338,50.228 	"/>
	<path fill="#4C81C2" d="M383.039,50.226c0,4.538-0.57,9.266-1.89,13.237h-39.135V50.226H383.039z"/>
	<g>
		<rect x="162.593" y="50.29" fill="#4C81C2" width="38.572" height="13.17"/>
		<path fill="#4C81C2" d="M181.878,56.875"/>
	</g>
	<g>
		<rect x="264.939" y="50.226" fill="#4C81C2" width="38.505" height="13.234"/>
		<path fill="#4C81C2" d="M284.191,56.843"/>
	</g>
	<path fill="#4C81C2" d="M457.269,77.752c0,0,0.011,10.017,0.003,10.035h-37.933v-13.17h72.283l4.49,12.279
		c0.021,0.008,4.329-12.309,4.337-12.282h72.849v13.173h-37.746c-0.003-0.019-0.021-10.033-0.021-10.033l-3.491,10.033
		l-71.285-0.019L457.269,77.752z"/>
	<path fill="#4C81C2" d="M264.939,74.615h110.537V74.61c-2.419,4.412-6.804,9.773-10.965,13.178c0,0-99.574,0.018-99.574,0
		C264.936,87.769,264.939,74.639,264.939,74.615z"/>
	<g>
		<rect x="162.593" y="74.612" fill="#4C81C2" width="38.572" height="13.173"/>
		<path fill="#4C81C2" d="M181.878,81.197"/>
	</g>
	<g>
		<rect x="535.552" y="99.448" fill="#4C81C2" width="37.746" height="13.17"/>
		<path fill="#4C81C2" d="M554.424,106.032"/>
	</g>
	<path fill="#4C81C2" d="M457.269,99.448h-37.93v13.17c-0.019-0.007,37.941,0.005,37.941,0
		C457.28,112.611,457.323,99.448,457.269,99.448z"/>
	<path fill="#4C81C2" d="M527.928,99.448c-0.172-0.019-4.422,13.163-4.6,13.17l-53.765,0.023
		c-0.042-0.021-4.727-13.212-4.731-13.193H527.928z"/>
	<path fill="#4C81C2" d="M264.933,99.444h99.387c4.538,3.782,8.637,8.446,11.85,13.173c0.181-0.007-111.234,0.005-111.234,0
		C264.936,112.611,264.933,99.458,264.933,99.444z"/>
	<path fill="#4C81C2" d="M201.16,112.615v-13.17h-38.502c0,0,0.008,13.167,0,13.167C162.649,112.611,201.141,112.615,201.16,112.615
		z"/>
	<g>
		<rect x="535.552" y="124.278" fill="#4C81C2" width="37.744" height="13.173"/>
		<path fill="#4C81C2" d="M554.424,130.864"/>
	</g>
	<g>
		<rect x="419.336" y="124.278" fill="#4C81C2" width="37.933" height="13.17"/>
		<path fill="#4C81C2" d="M438.303,130.862"/>
	</g>
	<path fill="#4C81C2" d="M514.501,137.512c0.01-0.059,4.655-13.246,4.727-13.234h-45.705c-0.08-0.006,4.686,13.175,4.686,13.175
		S514.492,137.567,514.501,137.512z"/>
	<path fill="#4C81C2" d="M264.936,137.448c0,0.053-0.003-13.17,0-13.173h39.077c0,0,0.035,13.177,0,13.177
		C303.976,137.452,264.936,137.436,264.936,137.448z"/>
	<path fill="#4C81C2" d="M381.654,124.275c1.889,3.97,2.079,8.696,2.456,13.233h-41.405v-13.233H381.654z"/>
	<g>
		<rect x="162.657" y="124.275" fill="#4C81C2" width="38.502" height="13.169"/>
		<path fill="#4C81C2" d="M181.91,130.86"/>
	</g>
	<g>
		<rect x="535.552" y="148.6" fill="#4C81C2" width="63.138" height="13.176"/>
		<path fill="#4C81C2" d="M567.119,155.19"/>
	</g>
	<g>
		<rect x="394.068" y="148.6" fill="#4C81C2" width="63.201" height="13.176"/>
		<path fill="#4C81C2" d="M425.667,155.19"/>
	</g>
	<polygon fill="#4C81C2" points="506.008,161.776 486.73,161.776 482.104,148.6 510.466,148.6 	"/>
	<path fill="#4C81C2" d="M137.576,148.6v13.17h89.678c0.037,0.021-0.04-13.162,0-13.162
		C227.291,148.608,137.472,148.6,137.576,148.6z"/>
	<path fill="#4C81C2" d="M382.469,148.6c-0.944,4.346-1.809,9.642-4.984,13.176l-1.184-0.006H238.97V148.6H382.469z"/>
	<polygon fill="#4C81C2" points="497.27,186.634 495.496,186.634 490.99,173.432 501.894,173.432 	"/>
	<g>
		<rect x="535.548" y="173.432" fill="#4C81C2" width="63.141" height="13.234"/>
		<path fill="#4C81C2" d="M567.119,180.05"/>
	</g>
	<path fill="#4C81C2" d="M238.951,186.634v-13.181c0,0,129.562,0.016,129.934,0.016c-8.699,8.316-20.634,13.01-33.489,13.197
		l-96.426-0.026"/>
	<g>
		<rect x="394.068" y="173.432" fill="#4C81C2" width="63.201" height="13.234"/>
		<path fill="#4C81C2" d="M425.667,180.05"/>
	</g>
	<path fill="#4C81C2" d="M227.254,173.49c0,0-0.04,13.144,0,13.144c0.037,0-89.651,0.054-89.678,0.026
		c-0.024-0.026,0.024-13.207,0-13.207C137.552,173.454,227.213,173.534,227.254,173.49z"/>
</g>
</svg>
