<?xml version="1.0" encoding="utf-8"?>
<!-- Generator: Adobe Illustrator 17.0.2, SVG Export Plug-In . SVG Version: 6.00 Build 0)  -->
<!DOCTYPE svg PUBLIC "-//W3C//DTD SVG 1.1//EN" "http://www.w3.org/Graphics/SVG/1.1/DTD/svg11.dtd">
<svg version="1.1" id="Layer_1" xmlns="http://www.w3.org/2000/svg" xmlns:xlink="http://www.w3.org/1999/xlink" x="0px" y="0px"
	 width="461.123px" height="186.172px" viewBox="0 0 461.123 186.172" enable-background="new 0 0 461.123 186.172"
	 xml:space="preserve">
<g>
	<polygon fill="#FFFFFF" points="461.123,13.245 384.366,13.245 389.095,0.01 461.123,0.01 	"/>
	<path fill="#FFFFFF" d="M256.504,0.008L327.769,0l4.666,13.266c0.034-0.019-75.907,0.016-75.907,0
		C256.528,13.247,256.483,0.008,256.504,0.008z"/>
	<path fill="#FFFFFF" d="M199.906,0.005c11.746,1.133,21.955,5.318,30.654,13.258c0,0-129.178,0.013-129.178,0
		c0-0.016,0-13.261,0-13.261L199.906,0.005z"/>
	<g>
		<rect x="0.012" y="0.005" fill="#FFFFFF" width="89.739" height="13.235"/>
		<path fill="#FFFFFF" d="M44.883,6.622"/>
	</g>
	<path fill="#FFFFFF" d="M461.123,38.075H375.57c0,0,4.666-13.164,4.638-13.17h80.915V38.075z"/>
	<polygon fill="#FFFFFF" points="341.252,38.091 256.501,38.091 256.501,24.903 336.609,24.903 	"/>
	<path fill="#FFFFFF" d="M240.619,24.899c1.702,4.348,3.718,8.066,3.718,13.17h-142.93v-13.17H240.619z"/>
	<g>
		<rect x="0.012" y="24.899" fill="#FFFFFF" width="89.739" height="13.17"/>
		<path fill="#FFFFFF" d="M44.883,31.484"/>
	</g>
	<polygon fill="#FFFFFF" points="366.819,62.966 371.514,49.735 435.753,49.754 435.753,62.937 	"/>
	<polygon fill="#FFFFFF" points="345.375,49.732 350.055,62.966 281.769,62.966 281.769,49.732 	"/>
	<path fill="#FFFFFF" d="M245.47,49.73c0,4.538-0.57,9.266-1.89,13.237h-39.135V49.73H245.47z"/>
	<g>
		<rect x="25.024" y="49.794" fill="#FFFFFF" width="38.572" height="13.17"/>
		<path fill="#FFFFFF" d="M44.309,56.379"/>
	</g>
	<g>
		<rect x="127.37" y="49.73" fill="#FFFFFF" width="38.505" height="13.234"/>
		<path fill="#FFFFFF" d="M146.622,56.347"/>
	</g>
	<path fill="#FFFFFF" d="M319.7,77.256c0,0,0.011,10.017,0.003,10.035h-37.933v-13.17h72.283l4.49,12.279
		c0.021,0.008,4.329-12.309,4.337-12.282h72.849v13.173h-37.746c-0.003-0.019-0.021-10.033-0.021-10.033l-3.491,10.033
		l-71.285-0.019L319.7,77.256z"/>
	<path fill="#FFFFFF" d="M127.37,74.119h110.537v-0.005c-2.419,4.412-6.804,9.773-10.965,13.178c0,0-99.574,0.018-99.574,0
		C127.367,87.273,127.37,74.142,127.37,74.119z"/>
	<g>
		<rect x="25.024" y="74.116" fill="#FFFFFF" width="38.572" height="13.173"/>
		<path fill="#FFFFFF" d="M44.309,80.701"/>
	</g>
	<g>
		<rect x="397.983" y="98.952" fill="#FFFFFF" width="37.746" height="13.17"/>
		<path fill="#FFFFFF" d="M416.855,105.536"/>
	</g>
	<path fill="#FFFFFF" d="M319.7,98.952h-37.93v13.17c-0.019-0.007,37.941,0.005,37.941,0
		C319.711,112.115,319.754,98.952,319.7,98.952z"/>
	<path fill="#FFFFFF" d="M390.359,98.952c-0.172-0.019-4.422,13.163-4.6,13.17l-53.765,0.023
		c-0.042-0.021-4.727-13.212-4.731-13.193H390.359z"/>
	<path fill="#FFFFFF" d="M127.364,98.948h99.387c4.538,3.782,8.637,8.446,11.85,13.173c0.181-0.007-111.234,0.005-111.234,0
		C127.367,112.115,127.364,98.962,127.364,98.948z"/>
	<path fill="#FFFFFF" d="M63.591,112.118v-13.17H25.088c0,0,0.008,13.167,0,13.167C25.08,112.115,63.572,112.118,63.591,112.118z"/>
	<g>
		<rect x="397.983" y="123.781" fill="#FFFFFF" width="37.744" height="13.173"/>
		<path fill="#FFFFFF" d="M416.855,130.368"/>
	</g>
	<g>
		<rect x="281.767" y="123.781" fill="#FFFFFF" width="37.933" height="13.17"/>
		<path fill="#FFFFFF" d="M300.734,130.366"/>
	</g>
	<path fill="#FFFFFF" d="M376.932,137.016c0.01-0.059,4.655-13.246,4.727-13.234h-45.705c-0.079-0.006,4.686,13.175,4.686,13.175
		S376.923,137.071,376.932,137.016z"/>
	<path fill="#FFFFFF" d="M127.367,136.952c0,0.053-0.003-13.17,0-13.173h39.077c0,0,0.035,13.177,0,13.177
		C166.407,136.956,127.367,136.94,127.367,136.952z"/>
	<path fill="#FFFFFF" d="M244.085,123.779c1.889,3.97,2.079,8.696,2.456,13.233h-41.405v-13.233H244.085z"/>
	<g>
		<rect x="25.088" y="123.779" fill="#FFFFFF" width="38.502" height="13.169"/>
		<path fill="#FFFFFF" d="M44.341,130.364"/>
	</g>
	<g>
		<rect x="397.983" y="148.104" fill="#FFFFFF" width="63.138" height="13.176"/>
		<path fill="#FFFFFF" d="M429.55,154.694"/>
	</g>
	<g>
		<rect x="256.499" y="148.104" fill="#FFFFFF" width="63.201" height="13.176"/>
		<path fill="#FFFFFF" d="M288.098,154.694"/>
	</g>
	<polygon fill="#FFFFFF" points="368.439,161.28 349.161,161.28 344.535,148.104 372.897,148.104 	"/>
	<path fill="#FFFFFF" d="M0.007,148.104v13.17h89.678c0.037,0.021-0.04-13.162,0-13.162C89.722,148.112-0.097,148.104,0.007,148.104
		z"/>
	<path fill="#FFFFFF" d="M244.9,148.104c-0.944,4.346-1.809,9.642-4.984,13.176l-1.184-0.006H101.401v-13.17H244.9z"/>
	<polygon fill="#FFFFFF" points="359.701,186.138 357.927,186.138 353.421,172.936 364.325,172.936 	"/>
	<g>
		<rect x="397.979" y="172.936" fill="#FFFFFF" width="63.141" height="13.234"/>
		<path fill="#FFFFFF" d="M429.55,179.554"/>
	</g>
	<path fill="#FFFFFF" d="M101.382,186.138v-13.181c0,0,129.562,0.016,129.934,0.016c-8.699,8.316-20.634,13.01-33.489,13.197
		l-96.426-0.026"/>
	<g>
		<rect x="256.499" y="172.936" fill="#FFFFFF" width="63.201" height="13.234"/>
		<path fill="#FFFFFF" d="M288.098,179.554"/>
	</g>
	<path fill="#FFFFFF" d="M89.685,172.994c0,0-0.04,13.144,0,13.144c0.037,0-89.651,0.054-89.678,0.026
		c-0.024-0.026,0.024-13.207,0-13.207C-0.017,172.958,89.644,173.038,89.685,172.994z"/>
</g>
</svg>
